# AST/ASF file generated using VICON BodyLanguage
# -----------------------------------------------
:version 1.10
:name VICON
:units
  mass 1.0
  length 0.45
  angle deg
:documentation
   .ast/.asf automatically generated from VICON data using
   VICON BodyBuilder and BodyLanguage model FoxedUp or BRILLIANT.MOD
:root
   order TX TY TZ RX RY RZ
   axis XYZ
   position 0 0 0  
   orientation 0 0 0 
:bonedata
  begin
     id 1 
     name lhipjoint
     direction 0.623529 -0.717805 0.309788 
     length 2.23224 
     axis 0 0 0  XYZ
  end
  begin
     id 2 
     name lfemur
     direction 0.34202 -0.939693 0  
     length 7.11402  
     axis 0 0 20  XYZ
    dof rx ry rz
    limits (-160.0 20.0)
           (-70.0 70.0)
           (-60.0 70.0)
  end
  begin
     id 3 
     name ltibia
     direction 0.34202 -0.939693 0   
     length 6.78496   
     axis 0 0 20   XYZ
    dof rx
    limits (-10.0 170.0)
  end
  begin
     id 4 
     name lfoot
     direction 0.125078 -0.343648 0.930732   
     length 1.84054   
     axis -90 7.62852e-016 20   XYZ
    dof rx rz
    limits (-45.0 90.0)
           (-70.0 20.0)
  end
  begin
     id 5 
     name ltoes
     direction 1.53565e-011 -4.21893e-011 1   
     length 0.916474   
     axis -90 7.62852e-016 20   XYZ
    dof rx
    limits (-90.0 20.0)
  end
  begin
     id 6 
     name rhipjoint
     direction -0.564688 -0.757748 0.327026   
     length 2.11457  
     axis 0 0 0  XYZ 
  end
  begin
     id 7 
     name rfemur
     direction -0.34202 -0.939693 0   
     length 7.14609   
     axis 0 0 -20   XYZ
    dof rx ry rz
    limits (-160.0 20.0)
           (-70.0 70.0)
           (-70.0 60.0)
  end
  begin
     id 8 
     name rtibia
     direction -0.34202 -0.939693 0   
     length 6.78101   
     axis 0 0 -20   XYZ
    dof rx
    limits (-10.0 170.0)
 end
 begin
     id 9 
     name rfoot
     direction -0.0992671 -0.272734 0.956955   
     length 1.96168  
     axis -90 -7.62852e-016 -20   XYZ
    dof rx rz
    limits (-45.0 90.0)
           (-20.0 70.0)
  end
  begin
     id 10 
     name rtoes
     direction -1.5356e-011 -4.21891e-011 1   
     length 0.982933   
     axis -90 -7.62852e-016 -20   XYZ
    dof rx
    limits (-90.0 20.0)
  end
  begin
     id 11 
     name lowerback
     direction -0.00596953 0.998668 0.0512524   
     length 1.87557   
     axis 0 0 0   XYZ
    dof rx ry rz
    limits (-20.0 45.0)
           (-30.0 30.0)
           (-30.0 30.0)
  end
  begin
     id 12 
     name upperback
     direction 0.00584879 0.999652 0.0257308   
     length 1.87883   
     axis 0 0 0   XYZ
    dof rx ry rz
    limits (-20.0 45.0)
           (-30.0 30.0)
           (-30.0 30.0)
  end
  begin
     id 13 
     name thorax
     direction 0.010104 0.999947 0.00178881   
     length 1.87779   
     axis 0 0 0   XYZ
    dof rx ry rz
    limits (-20.0 45.0)
           (-30.0 30.0)
           (-30.0 30.0)
  end
  begin
     id 14 
     name lowerneck
     direction 0.0120771 0.995934 -0.0892773   
     length 1.40897   
     axis 0 0 0   XYZ
    dof rx ry rz
    limits (-20.0 45.0)
           (-30.0 30.0)
           (-30.0 30.0)
  end
  begin
     id 15 
     name upperneck
     direction -0.030568 0.999465 -0.0116366   
     length 1.38661   
     axis 0 0 0   XYZ
    dof rx ry rz
    limits (-20.0 45.0)
           (-30.0 30.0)
           (-30.0 30.0)
  end
  begin
     id 16
     name head
     direction -0.0170715 0.999854 -0.00104426  
     length 1.47052  
     axis 0 0 0   XYZ
    dof rx ry rz
    limits (-20.0 45.0)
           (-30.0 30.0)
           (-30.0 30.0)
  end
  begin
     id 17 
     name lclavicle
     direction 0.977763 0.206143 0.038532  
     length 3.02424  
     axis 0 0 0   XYZ
    dof ry rz
    limits (-20.0 10.0)
           (0.0 20.0)
  end
  begin
     id 18 
     name lhumerus
     direction 1 -4.48965e-011 -2.62654e-027   
     length 4.68382   
     axis 180 -30 -90   XYZ
    dof rx ry rz
    limits (-60.0 90.0)
           (-90.0 90.0)
           (-90.0 90.0)
  end
  begin
     id 19
     name lradius
     direction 1 -4.48973e-011 -1.54954e-027   
     length 2.98124   
     axis 180 -30 -90   XYZ
    dof rx
    limits (-10.0 170.0)
  end
  begin
     id 20
     name lwrist
     direction 1 -4.48959e-011 7.20928e-028   
     length 1.49062   
     axis -5.52449e-016 90 90   XYZ
    dof ry
    limits (-180.0 0.0)
 end
  begin
     id 21 
     name lhand
     direction 1 -4.48971e-011 1.44186e-027   
     length 0.707595   
     axis -9.20027e-016 90 90   XYZ
    dof rx rz
    limits (-90.0 90.0)
           (-45.0 45.0)
  end
  begin
     id 22 
     name lfingers
     direction 1 -4.48985e-011 2.88371e-027   
     length 0.570481   
     axis -1.84005e-015 90 90   XYZ
    dof rx
    limits (0.0 90.0)
  end
  begin
     id 23
     name lthumb
     direction 0.707107 -6.34929e-011 0.707107   
     length 0.819101   
     axis -90 45 2.85299e-015   XYZ
    dof rx rz
    limits (-45.0 45.0)
           (-45.0 45.0)
  end
  begin
     id 24 
     name rclavicle
     direction -0.958661 0.284411 -0.00895327   
     length 3.11921  
     axis 0 0 0   XYZ 
    dof ry rz
    limits (-10.0 20.0)
           (-20.0 0.0)
  end
  begin
     id 25 
     name rhumerus
     direction -1 -4.48963e-011 -4.22193e-027  
     length 4.75876   
     axis 180 30 90   XYZ
    dof rx ry rz
    limits (-90.0 60.0)
           (-90.0 90.0)
           (-90.0 90.0)
  end
  begin
     id 26 
     name rradius
     direction -1 -4.48968e-011 -1.07616e-027   
     length 2.93293   
     axis 180 30 90   XYZ
    dof rx
    limits (-10.0 170.0)
  end
  begin
     id 27 
     name rwrist
     direction -1 -4.48965e-011 7.20928e-028   
     length 1.46647   
     axis -5.52449e-016 -90 -90   XYZ
    dof ry
    limits (-180.0 0.0)
  end
  begin
     id 28
     name rhand
     direction -1 -4.48971e-011 1.44186e-027   
     length 0.831748   
     axis -9.20027e-016 -90 -90   XYZ
    dof rx rz
    limits (-90.0 90.0)
           (-45.0 45.0)
  end
  begin
     id 29
     name rfingers
     direction -1 -4.48961e-011 2.88371e-027   
     length 0.670577   
     axis -1.84005e-015 -90 -90   XYZ
    dof rx
    limits (0.0 90.0)
  end
  begin
     id 30
     name rthumb
     direction -0.707107 -6.34929e-011 0.707107   
     length 0.962818   
     axis -90 -45 -2.85299e-015   XYZ
    dof rx rz
    limits (-45.0 45.0)
           (-45.0 45.0)
  end
:hierarchy
  begin
    root lhipjoint rhipjoint lowerback
    lhipjoint lfemur
    lfemur ltibia
    ltibia lfoot
    lfoot ltoes
    rhipjoint rfemur
    rfemur rtibia
    rtibia rfoot
    rfoot rtoes
    lowerback upperback
    upperback thorax
    thorax lowerneck lclavicle rclavicle
    lowerneck upperneck
    upperneck head
    lclavicle lhumerus
    lhumerus lradius
    lradius lwrist
    lwrist lhand lthumb
    lhand lfingers
    rclavicle rhumerus
    rhumerus rradius
    rradius rwrist
    rwrist rhand rthumb
    rhand rfingers
  end

#!OML:ASF E:\id_vita\Project 1\Capture day 1\Session 1\Female.ASF
:FULLY-SPECIFIED
:DEGREES
61
root 48.2389 16.6631 -0.659903 -152.772 -86.8059 168.922
lowerback -14.2854 -0.19627 -3.34155
upperback -7.36418 -0.27228 1.06126
thorax 0.244508 -0.203756 2.95479
lowerneck 8.51244 -3.75132 -8.3777
upperneck 2.90476 -5.88768 7.19209
head -0.0644799 -3.15332 3.99299
rclavicle 1.15047e-014 4.37326e-015
rhumerus -39.4136 23.4753 -106.832
rradius 117.163
rwrist -12.084
rhand -16.72 22.0509
rfingers 7.12502
rthumb 9.50547 -7.71472
lclavicle 1.15047e-014 4.37326e-015
lhumerus -36.6154 24.7109 78.3883
lradius 14.981
lwrist -53.3728
lhand 24.0598 26.5933
lfingers 7.12502
lthumb 48.2966 48.6665
rfemur -22.719 16.798 14.6455
rtibia 21.7699
rfoot -5.10956 -20.9434
rtoes -15.267
lfemur -25.8444 -13.3498 -16.6464
ltibia 27.5047
lfoot -18.2797 9.2803
ltoes 2.88887
62
root 48.2414 16.6625 -0.657537 -152.401 -86.6107 168.498
lowerback -14.3267 -0.212744 -3.37355
upperback -7.27913 -0.282691 1.04701
thorax 0.357018 -0.209676 2.95614
lowerneck 8.32277 -3.71112 -8.37233
upperneck 3.27204 -5.83988 7.13829
head 0.0825755 -3.1309 3.95909
rclavicle -2.23633e-016 -1.53064e-014
rhumerus -37.9504 25.0933 -107.042
rradius 118.649
rwrist -11.1029
rhand -17.5953 23.3647
rfingers 7.12502
rthumb 8.66085 -6.43768
lclavicle -2.23633e-016 -1.53064e-014
lhumerus -36.4897 24.7305 78.4328
lradius 14.9871
lwrist -53.3
lhand 24.2711 26.8448
lfingers 7.12502
lthumb 48.4911 48.8251
rfemur -22.7197 16.6488 14.5925
rtibia 21.8306
rfoot -5.24707 -20.3922
rtoes -15.0219
lfemur -25.7362 -13.1544 -16.8036
ltibia 27.4619
lfoot -18.2935 9.24959
ltoes 2.68632
63
root 48.2439 16.6623 -0.654835 -151.742 -86.3981 167.799
lowerback -14.3704 -0.256039 -3.4825
upperback -7.15426 -0.316303 1.07764
thorax 0.51424 -0.224836 3.04465
lowerneck 7.86907 -3.68738 -8.34143
upperneck 3.71441 -5.79105 6.98984
head 0.296568 -3.10194 3.87776
rclavicle -2.95692e-015 6.36111e-015
rhumerus -35.7727 27.216 -106.97
rradius 120.076
rwrist -10.7077
rhand -18.3962 23.279
rfingers 7.12502
rthumb 7.88797 -6.55379
lclavicle -2.95692e-015 6.36111e-015
lhumerus -36.2928 24.9911 78.4708
lradius 14.9631
lwrist -53.3653
lhand 24.4708 27.0354
lfingers 7.12502
lthumb 48.6749 48.9271
rfemur -22.7332 16.5013 14.5096
rtibia 21.8758
rfoot -5.37813 -19.8405
rtoes -14.6566
lfemur -25.6526 -13.0447 -16.9646
ltibia 27.4245
lfoot -18.2947 9.30949
ltoes 2.4276
64
root 48.2458 16.6627 -0.657667 -153.047 -86.1133 169.023
lowerback -14.438 -0.2414 -3.60606
upperback -7.05773 -0.274283 1.13169
thorax 0.648093 -0.201978 3.17724
lowerneck 7.70605 -3.68236 -8.10759
upperneck 3.98162 -5.76247 6.67971
head 0.392451 -3.08319 3.71361
rclavicle 6.33626e-015 5.96354e-015
rhumerus -34.0003 28.9236 -106.831
rradius 121.401
rwrist -10.4562
rhand -18.8717 23.2326
rfingers 7.12502
rthumb 7.42897 -6.61699
lclavicle 6.33626e-015 5.96354e-015
lhumerus -36.2224 25.4643 78.2691
lradius 14.7995
lwrist -53.8055
lhand 24.5558 27.0079
lfingers 7.12502
lthumb 48.753 48.8615
rfemur -22.7091 16.6445 14.5219
rtibia 21.9034
rfoot -5.4098 -20.0043
rtoes -15.1717
lfemur -25.4921 -12.9804 -16.9835
ltibia 27.3993
lfoot -18.3289 9.53149
ltoes 2.8628
65
root 48.2501 16.6622 -0.656501 -153.268 -85.9797 169.253
lowerback -14.5373 -0.25057 -3.66754
upperback -7.0186 -0.274396 1.15154
thorax 0.741718 -0.20254 3.23285
lowerneck 7.65113 -3.66379 -7.84277
upperneck 4.15111 -5.717 6.38548
head 0.435695 -3.05667 3.55503
rclavicle 6.98231e-015 6.95746e-015
rhumerus -31.9998 30.3073 -106.422
rradius 122.746
rwrist -10.8425
rhand -15.2595 21.7167
rfingers 7.12502
rthumb 10.9144 -7.97959
lclavicle 6.98231e-015 6.95746e-015
lhumerus -36.1964 25.8927 78.0528
lradius 14.6284
lwrist -54.3462
lhand 24.6002 26.983
lfingers 7.12502
lthumb 48.7939 48.8168
rfemur -22.7656 16.7841 14.4586
rtibia 21.8999
rfoot -5.36885 -20.3272
rtoes -15.7304
lfemur -25.4922 -12.9394 -17.0027
ltibia 27.3961
lfoot -18.2912 9.63503
ltoes 3.00749
66
root 48.2556 16.6624 -0.654494 -153.365 -85.839 169.372
lowerback -14.5508 -0.343227 -3.52278
upperback -6.89327 -0.404715 1.12377
thorax 0.892938 -0.273029 3.10161
lowerneck 6.86334 -3.55987 -7.68576
upperneck 4.61959 -5.52351 6.18889
head 0.698198 -2.94793 3.42663
rclavicle -7.28049e-015 -3.77691e-015
rhumerus -29.8121 32.1213 -106.299
rradius 123.867
rwrist -10.838
rhand -14.5416 16.8814
rfingers 7.12502
rthumb 11.6068 -12.7772
lclavicle -7.28049e-015 -3.77691e-015
lhumerus -35.902 26.1757 77.9841
lradius 14.5601
lwrist -54.4203
lhand 24.5646 27.2165
lfingers 7.12502
lthumb 48.7611 49.0662
rfemur -22.8244 16.7884 14.3987
rtibia 21.8655
rfoot -5.48391 -20.026
rtoes -15.3593
lfemur -25.5275 -12.8436 -17.0484
ltibia 27.4157
lfoot -18.2309 9.6199
ltoes 2.71087
67
root 48.2595 16.663 -0.653247 -153.954 -85.77 169.953
lowerback -14.5552 -0.320853 -3.47564
upperback -6.88855 -0.380319 1.09138
thorax 0.898456 -0.262517 3.04451
lowerneck 6.70221 -3.58169 -7.34672
upperneck 4.89517 -5.52847 5.95477
head 0.797476 -2.94606 3.27327
rclavicle 1.36664e-015 2.98177e-015
rhumerus -27.9233 33.5975 -106.149
rradius 124.922
rwrist -10.7925
rhand -18.6903 24.2303
rfingers 7.12502
rthumb 7.60405 -5.613
lclavicle 1.36664e-015 2.98177e-015
lhumerus -35.7522 25.915 78.1343
lradius 14.4719
lwrist -54.3106
lhand 24.26 27.3872
lfingers 7.12502
lthumb 48.4809 49.3725
rfemur -22.8323 16.8035 14.4218
rtibia 21.8311
rfoot -5.4487 -19.6978
rtoes -15.058
lfemur -25.5299 -12.7693 -17.0341
ltibia 27.4366
lfoot -18.2439 9.58102
ltoes 2.6295
